<svg id="Layer_1" data-name="Layer 1" xmlns="http://www.w3.org/2000/svg" viewBox="0 0 49.73 22.53"><defs><style>.cls-1{fill:#29abe2;}.cls-2{fill:#ef9132;}</style></defs><path id="Path_1" data-name="Path 1" class="cls-1" d="M48.61,23.2l-3-4.18L42,13.91a.34.34,0,0,0-.33-.17H33.88a.2.2,0,0,0-.2.1c-.31.45-.63.89-1,1.33l-3.15,4.42-4.06,5.67L22.3,29.77,17.78,36.1a1.46,1.46,0,0,0-.09.15h7.83a.4.4,0,0,0,.37-.19l.92-1.29c1.4-2,2.81-3.93,4.21-5.89l3.16-4.42,3.53-4.95.12-.14.07.09,1.54,2.2,2.17,3.08c.2.28.2.19,0,.49l-2.82,4.16c-.3.43-.59.87-.88,1.3a.26.26,0,0,1-.22.13l-1.54,0h-5.5l-.27,0,.1.16,2.05,3.14c.42.63.84,1.26,1.25,1.9a.32.32,0,0,0,.3.17c.7,0,1.4,0,2.09,0h5.5a.33.33,0,0,0,.31-.15c.34-.49.69-1,1-1.46l2-2.86,2.38-3.37,2-2.86.42-.61-.1-.16Z" transform="translate(-0.14 -13.74)"/><path id="Path_8" data-name="Path 8" class="cls-2" d="M23.54,26l4.54-6.35,4-5.65c.06-.08.12-.16.19-.27H24.38a.27.27,0,0,0-.25.13c-.49.7-1,1.39-1.49,2.09l-2.84,4-2.5,3.5L14,28.09l-1.69,2.35-.12.17L8.22,25l.11-.17,1-1.5,2.72-4a.29.29,0,0,1,.28-.16c1.07,0,2.13,0,3.19,0h4.08c0-.06-.06-.11-.08-.14L16.22,13.9a.32.32,0,0,0-.31-.16H8.27a.25.25,0,0,0-.24.11L4.36,19l-2,2.83L.2,24.93.14,25a.41.41,0,0,1,0,.09L1.53,27l3.08,4.31L8,36.1a.34.34,0,0,0,.32.16H16a.33.33,0,0,0,.3-.14q1.44-2,2.91-4.08Q21.38,29,23.54,26Z" transform="translate(-0.14 -13.74)"/></svg>